<mxfile host="Electron" modified="2024-05-19T05:00:15.359Z" agent="Mozilla/5.0 (Windows NT 10.0; Win64; x64) AppleWebKit/537.36 (KHTML, like Gecko) draw.io/24.2.5 Chrome/120.0.6099.109 Electron/28.1.0 Safari/537.36" etag="bSpr5bjYt9BFClURJDS5" version="24.2.5" type="device">
  <diagram name="Page-1" id="f4X-83lch2x4hc1WxE7M">
    <mxGraphModel dx="1420" dy="890" grid="1" gridSize="10" guides="1" tooltips="1" connect="1" arrows="1" fold="1" page="1" pageScale="1" pageWidth="827" pageHeight="1169" math="1" shadow="0">
      <root>
        <mxCell id="0" />
        <mxCell id="1" parent="0" />
        <mxCell id="0-xZhpKkMX_-yZnJY7W8-13" value="" style="group" parent="1" vertex="1" connectable="0">
          <mxGeometry x="40" y="40" width="580" height="85" as="geometry" />
        </mxCell>
        <mxCell id="0-xZhpKkMX_-yZnJY7W8-2" value="Computer Grphics" style="rounded=1;whiteSpace=wrap;html=1;sketch=1;hachureGap=4;jiggle=2;curveFitting=1;fontFamily=Architects Daughter;fontSource=https%3A%2F%2Ffonts.googleapis.com%2Fcss%3Ffamily%3DArchitects%2BDaughter;arcSize=50;fillColor=#ffcccc;strokeColor=#36393d;fontStyle=1;fontSize=21;strokeWidth=2;shadow=0;" parent="0-xZhpKkMX_-yZnJY7W8-13" vertex="1">
          <mxGeometry x="20" width="200" height="35" as="geometry" />
        </mxCell>
        <mxCell id="0-xZhpKkMX_-yZnJY7W8-3" value="It&#39;s the use of computer to create and manipulate images" style="rounded=1;whiteSpace=wrap;html=1;sketch=1;hachureGap=4;jiggle=2;curveFitting=1;fontFamily=Architects Daughter;fontSource=https%3A%2F%2Ffonts.googleapis.com%2Fcss%3Ffamily%3DArchitects%2BDaughter;arcSize=50;fillColor=#ffff88;strokeColor=#36393d;fontStyle=1;fontSize=18;strokeWidth=2;shadow=0;" parent="0-xZhpKkMX_-yZnJY7W8-13" vertex="1">
          <mxGeometry y="35" width="580" height="50" as="geometry" />
        </mxCell>
        <mxCell id="0-xZhpKkMX_-yZnJY7W8-18" value="" style="group" parent="1" vertex="1" connectable="0">
          <mxGeometry x="65" y="260" width="250" height="85" as="geometry" />
        </mxCell>
        <mxCell id="0-xZhpKkMX_-yZnJY7W8-15" value="Imaging" style="rounded=1;whiteSpace=wrap;html=1;sketch=1;hachureGap=4;jiggle=2;curveFitting=1;fontFamily=Architects Daughter;fontSource=https%3A%2F%2Ffonts.googleapis.com%2Fcss%3Ffamily%3DArchitects%2BDaughter;arcSize=50;fillColor=#cce5ff;strokeColor=#36393d;fontStyle=1;fontSize=21;strokeWidth=2;shadow=0;spacingBottom=5;container=0;" parent="0-xZhpKkMX_-yZnJY7W8-18" vertex="1">
          <mxGeometry x="20" width="110" height="35" as="geometry" />
        </mxCell>
        <mxCell id="0-xZhpKkMX_-yZnJY7W8-16" value="Represent 2D Image" style="rounded=1;whiteSpace=wrap;html=1;sketch=1;hachureGap=4;jiggle=2;curveFitting=1;fontFamily=Architects Daughter;fontSource=https%3A%2F%2Ffonts.googleapis.com%2Fcss%3Ffamily%3DArchitects%2BDaughter;arcSize=50;fillColor=#ffcccc;strokeColor=#36393d;fontStyle=1;fontSize=18;strokeWidth=2;shadow=0;container=0;" parent="0-xZhpKkMX_-yZnJY7W8-18" vertex="1">
          <mxGeometry y="35" width="250" height="50" as="geometry" />
        </mxCell>
        <mxCell id="0-xZhpKkMX_-yZnJY7W8-19" value="" style="group" parent="1" vertex="1" connectable="0">
          <mxGeometry x="496" y="260" width="250" height="85" as="geometry" />
        </mxCell>
        <mxCell id="0-xZhpKkMX_-yZnJY7W8-20" value="Modeling" style="rounded=1;whiteSpace=wrap;html=1;sketch=1;hachureGap=4;jiggle=2;curveFitting=1;fontFamily=Architects Daughter;fontSource=https%3A%2F%2Ffonts.googleapis.com%2Fcss%3Ffamily%3DArchitects%2BDaughter;arcSize=50;fillColor=#ffcc99;strokeColor=#36393d;fontStyle=1;fontSize=21;strokeWidth=2;shadow=0;spacingBottom=5;container=0;" parent="0-xZhpKkMX_-yZnJY7W8-19" vertex="1">
          <mxGeometry x="20" width="110" height="35" as="geometry" />
        </mxCell>
        <mxCell id="0-xZhpKkMX_-yZnJY7W8-21" value="Represent 3D Objects" style="rounded=1;whiteSpace=wrap;html=1;sketch=1;hachureGap=4;jiggle=2;curveFitting=1;fontFamily=Architects Daughter;fontSource=https%3A%2F%2Ffonts.googleapis.com%2Fcss%3Ffamily%3DArchitects%2BDaughter;arcSize=50;fillColor=#ffff88;strokeColor=#36393d;fontStyle=1;fontSize=18;strokeWidth=2;shadow=0;container=0;" parent="0-xZhpKkMX_-yZnJY7W8-19" vertex="1">
          <mxGeometry y="35" width="250" height="50" as="geometry" />
        </mxCell>
        <mxCell id="0-xZhpKkMX_-yZnJY7W8-22" value="" style="group" parent="1" vertex="1" connectable="0">
          <mxGeometry x="65" y="380" width="250" height="85" as="geometry" />
        </mxCell>
        <mxCell id="0-xZhpKkMX_-yZnJY7W8-23" value="Rendering" style="rounded=1;whiteSpace=wrap;html=1;sketch=1;hachureGap=4;jiggle=2;curveFitting=1;fontFamily=Architects Daughter;fontSource=https%3A%2F%2Ffonts.googleapis.com%2Fcss%3Ffamily%3DArchitects%2BDaughter;arcSize=50;fillColor=#ffff88;strokeColor=#36393d;fontStyle=1;fontSize=21;strokeWidth=2;shadow=0;spacingBottom=5;container=0;" parent="0-xZhpKkMX_-yZnJY7W8-22" vertex="1">
          <mxGeometry x="20" width="120" height="35" as="geometry" />
        </mxCell>
        <mxCell id="0-xZhpKkMX_-yZnJY7W8-24" value="Construct 2D from 3D" style="rounded=1;whiteSpace=wrap;html=1;sketch=1;hachureGap=4;jiggle=2;curveFitting=1;fontFamily=Architects Daughter;fontSource=https%3A%2F%2Ffonts.googleapis.com%2Fcss%3Ffamily%3DArchitects%2BDaughter;arcSize=50;fillColor=#ffcc99;strokeColor=#36393d;fontStyle=1;fontSize=18;strokeWidth=2;shadow=0;container=0;" parent="0-xZhpKkMX_-yZnJY7W8-22" vertex="1">
          <mxGeometry y="35" width="250" height="50" as="geometry" />
        </mxCell>
        <mxCell id="0-xZhpKkMX_-yZnJY7W8-26" value="Animation" style="rounded=1;whiteSpace=wrap;html=1;sketch=1;hachureGap=4;jiggle=2;curveFitting=1;fontFamily=Architects Daughter;fontSource=https%3A%2F%2Ffonts.googleapis.com%2Fcss%3Ffamily%3DArchitects%2BDaughter;arcSize=50;fillColor=#ffcccc;strokeColor=#36393d;fontStyle=1;fontSize=21;strokeWidth=2;shadow=0;spacingBottom=5;container=0;" parent="1" vertex="1">
          <mxGeometry x="516" y="380" width="110" height="35" as="geometry" />
        </mxCell>
        <mxCell id="0-xZhpKkMX_-yZnJY7W8-27" value="Simulating changes of objects overtime" style="rounded=1;whiteSpace=wrap;html=1;sketch=1;hachureGap=4;jiggle=2;curveFitting=1;fontFamily=Architects Daughter;fontSource=https%3A%2F%2Ffonts.googleapis.com%2Fcss%3Ffamily%3DArchitects%2BDaughter;arcSize=50;fillColor=#cce5ff;strokeColor=#36393d;fontStyle=1;fontSize=18;strokeWidth=2;shadow=0;container=0;" parent="1" vertex="1">
          <mxGeometry x="496" y="415" width="266" height="65" as="geometry" />
        </mxCell>
        <mxCell id="0-xZhpKkMX_-yZnJY7W8-30" value="&lt;span style=&quot;font-size: 22px; font-weight: 700;&quot;&gt;Computer Graphics Tasks&lt;/span&gt;" style="shape=hexagon;perimeter=hexagonPerimeter2;whiteSpace=wrap;html=1;fixedSize=1;sketch=1;hachureGap=4;jiggle=2;curveFitting=1;fontFamily=Architects Daughter;fontSource=https%3A%2F%2Ffonts.googleapis.com%2Fcss%3Ffamily%3DArchitects%2BDaughter;strokeWidth=2;fillColor=#cdeb8b;strokeColor=#36393d;" parent="1" vertex="1">
          <mxGeometry x="314" y="160" width="200" height="80" as="geometry" />
        </mxCell>
        <mxCell id="0-xZhpKkMX_-yZnJY7W8-31" value="&lt;span style=&quot;font-size: 26px; font-weight: 700;&quot;&gt;Graphics &amp;amp; Rendering Pipeline&lt;/span&gt;" style="shape=hexagon;perimeter=hexagonPerimeter2;whiteSpace=wrap;html=1;fixedSize=1;sketch=1;hachureGap=4;jiggle=2;curveFitting=1;fontFamily=Architects Daughter;fontSource=https%3A%2F%2Ffonts.googleapis.com%2Fcss%3Ffamily%3DArchitects%2BDaughter;strokeWidth=2;fillColor=#cce5ff;strokeColor=#36393d;fillStyle=hachure;fontSize=26;" parent="1" vertex="1">
          <mxGeometry x="289.5" y="690" width="249" height="100" as="geometry" />
        </mxCell>
        <mxCell id="0-xZhpKkMX_-yZnJY7W8-34" value="Rasterization Stage" style="rounded=1;whiteSpace=wrap;html=1;sketch=1;hachureGap=4;jiggle=2;curveFitting=1;fontFamily=Architects Daughter;fontSource=https%3A%2F%2Ffonts.googleapis.com%2Fcss%3Ffamily%3DArchitects%2BDaughter;arcSize=38;fillColor=#ffff88;strokeColor=#36393d;fontStyle=1;fontSize=27;strokeWidth=2;shadow=0;" parent="1" vertex="1">
          <mxGeometry x="273" y="1600" width="281" height="50" as="geometry" />
        </mxCell>
        <mxCell id="0-xZhpKkMX_-yZnJY7W8-38" value="" style="group" parent="1" vertex="1" connectable="0">
          <mxGeometry x="64" y="560" width="700" height="85" as="geometry" />
        </mxCell>
        <mxCell id="0-xZhpKkMX_-yZnJY7W8-36" value="Pipeline" style="rounded=1;whiteSpace=wrap;html=1;sketch=1;hachureGap=4;jiggle=2;curveFitting=1;fontFamily=Architects Daughter;fontSource=https%3A%2F%2Ffonts.googleapis.com%2Fcss%3Ffamily%3DArchitects%2BDaughter;arcSize=50;fillColor=#ffcc99;strokeColor=#36393d;fontStyle=1;fontSize=21;strokeWidth=2;shadow=0;container=0;" parent="0-xZhpKkMX_-yZnJY7W8-38" vertex="1">
          <mxGeometry x="20" width="200" height="35" as="geometry" />
        </mxCell>
        <mxCell id="0-xZhpKkMX_-yZnJY7W8-37" value="Divide the process into stages to transform 3D to 2D repsentation on a screen" style="rounded=1;whiteSpace=wrap;html=1;sketch=1;hachureGap=4;jiggle=2;curveFitting=1;fontFamily=Architects Daughter;fontSource=https%3A%2F%2Ffonts.googleapis.com%2Fcss%3Ffamily%3DArchitects%2BDaughter;arcSize=50;fillColor=#cdeb8b;strokeColor=#36393d;fontStyle=1;fontSize=18;strokeWidth=2;shadow=0;container=0;" parent="0-xZhpKkMX_-yZnJY7W8-38" vertex="1">
          <mxGeometry y="35" width="700" height="50" as="geometry" />
        </mxCell>
        <mxCell id="0-xZhpKkMX_-yZnJY7W8-42" value="" style="endArrow=none;html=1;rounded=0;sketch=1;hachureGap=4;jiggle=2;curveFitting=1;fontFamily=Architects Daughter;fontSource=https%3A%2F%2Ffonts.googleapis.com%2Fcss%3Ffamily%3DArchitects%2BDaughter;strokeWidth=2;edgeStyle=orthogonalEdgeStyle;curved=1;" parent="1" edge="1">
          <mxGeometry width="50" height="50" relative="1" as="geometry">
            <mxPoint x="99" y="520" as="sourcePoint" />
            <mxPoint x="729" y="520" as="targetPoint" />
            <Array as="points">
              <mxPoint x="99" y="510" />
              <mxPoint x="179" y="510" />
              <mxPoint x="179" y="530" />
              <mxPoint x="269" y="530" />
              <mxPoint x="269" y="510" />
              <mxPoint x="359" y="510" />
              <mxPoint x="359" y="530" />
              <mxPoint x="449" y="530" />
              <mxPoint x="449" y="510" />
              <mxPoint x="539" y="510" />
              <mxPoint x="539" y="530" />
              <mxPoint x="629" y="530" />
              <mxPoint x="629" y="510" />
              <mxPoint x="729" y="510" />
            </Array>
          </mxGeometry>
        </mxCell>
        <mxCell id="0-xZhpKkMX_-yZnJY7W8-45" value="&lt;span style=&quot;font-size: 27px;&quot;&gt;Geometry Stage&lt;/span&gt;" style="rounded=1;whiteSpace=wrap;html=1;sketch=1;hachureGap=4;jiggle=2;curveFitting=1;fontFamily=Architects Daughter;fontSource=https%3A%2F%2Ffonts.googleapis.com%2Fcss%3Ffamily%3DArchitects%2BDaughter;arcSize=50;fillColor=#cdeb8b;strokeColor=#36393d;fontStyle=1;fontSize=27;strokeWidth=2;shadow=0;container=0;spacingBottom=6;" parent="1" vertex="1">
          <mxGeometry x="299" y="1200" width="280" height="50" as="geometry" />
        </mxCell>
        <mxCell id="0-xZhpKkMX_-yZnJY7W8-63" value="" style="group" parent="1" vertex="1" connectable="0">
          <mxGeometry x="455" y="1340" width="300" height="50" as="geometry" />
        </mxCell>
        <mxCell id="0-xZhpKkMX_-yZnJY7W8-55" value="Model Transformation" style="rounded=1;whiteSpace=wrap;html=1;sketch=1;hachureGap=4;jiggle=2;curveFitting=1;fontFamily=Architects Daughter;fontSource=https%3A%2F%2Ffonts.googleapis.com%2Fcss%3Ffamily%3DArchitects%2BDaughter;arcSize=50;fillColor=#ffcc99;strokeColor=#36393d;fontStyle=1;fontSize=18;strokeWidth=2;shadow=0;container=0;" parent="0-xZhpKkMX_-yZnJY7W8-63" vertex="1">
          <mxGeometry x="50" width="250" height="50" as="geometry" />
        </mxCell>
        <mxCell id="0-xZhpKkMX_-yZnJY7W8-62" value="2" style="rounded=1;whiteSpace=wrap;html=1;sketch=1;hachureGap=4;jiggle=2;curveFitting=1;fontFamily=Architects Daughter;fontSource=https%3A%2F%2Ffonts.googleapis.com%2Fcss%3Ffamily%3DArchitects%2BDaughter;arcSize=46;fillColor=#cdeb8b;strokeColor=#36393d;fontStyle=1;fontSize=30;strokeWidth=2;shadow=0;container=0;" parent="0-xZhpKkMX_-yZnJY7W8-63" vertex="1">
          <mxGeometry width="50" height="50" as="geometry" />
        </mxCell>
        <mxCell id="0-xZhpKkMX_-yZnJY7W8-64" value="" style="group" parent="1" vertex="1" connectable="0">
          <mxGeometry x="58" y="1390" width="300" height="50" as="geometry" />
        </mxCell>
        <mxCell id="0-xZhpKkMX_-yZnJY7W8-52" value="Transformation Viewing" style="rounded=1;whiteSpace=wrap;html=1;sketch=1;hachureGap=4;jiggle=2;curveFitting=1;fontFamily=Architects Daughter;fontSource=https%3A%2F%2Ffonts.googleapis.com%2Fcss%3Ffamily%3DArchitects%2BDaughter;arcSize=50;fillColor=#ffff88;strokeColor=#36393d;fontStyle=1;fontSize=18;strokeWidth=2;shadow=0;container=0;" parent="0-xZhpKkMX_-yZnJY7W8-64" vertex="1">
          <mxGeometry x="50" width="250" height="50" as="geometry" />
        </mxCell>
        <mxCell id="0-xZhpKkMX_-yZnJY7W8-60" value="3" style="rounded=1;whiteSpace=wrap;html=1;sketch=1;hachureGap=4;jiggle=2;curveFitting=1;fontFamily=Architects Daughter;fontSource=https%3A%2F%2Ffonts.googleapis.com%2Fcss%3Ffamily%3DArchitects%2BDaughter;arcSize=46;fillColor=#cdeb8b;strokeColor=#36393d;fontStyle=1;fontSize=30;strokeWidth=2;shadow=0;container=0;" parent="0-xZhpKkMX_-yZnJY7W8-64" vertex="1">
          <mxGeometry width="50" height="50" as="geometry" />
        </mxCell>
        <mxCell id="0-xZhpKkMX_-yZnJY7W8-66" value="" style="group" parent="1" vertex="1" connectable="0">
          <mxGeometry x="57" y="1290" width="300" height="50" as="geometry" />
        </mxCell>
        <mxCell id="0-xZhpKkMX_-yZnJY7W8-49" value="Loaded 3D Model" style="rounded=1;whiteSpace=wrap;html=1;sketch=1;hachureGap=4;jiggle=2;curveFitting=1;fontFamily=Architects Daughter;fontSource=https%3A%2F%2Ffonts.googleapis.com%2Fcss%3Ffamily%3DArchitects%2BDaughter;arcSize=50;fillColor=#ffcccc;strokeColor=#36393d;fontStyle=1;fontSize=18;strokeWidth=2;shadow=0;container=0;" parent="0-xZhpKkMX_-yZnJY7W8-66" vertex="1">
          <mxGeometry x="50" width="250" height="50" as="geometry" />
        </mxCell>
        <mxCell id="0-xZhpKkMX_-yZnJY7W8-59" value="1" style="rounded=1;whiteSpace=wrap;html=1;sketch=1;hachureGap=4;jiggle=2;curveFitting=1;fontFamily=Architects Daughter;fontSource=https%3A%2F%2Ffonts.googleapis.com%2Fcss%3Ffamily%3DArchitects%2BDaughter;arcSize=46;fillColor=#cdeb8b;strokeColor=#36393d;fontStyle=1;fontSize=30;strokeWidth=2;shadow=0;container=0;" parent="0-xZhpKkMX_-yZnJY7W8-66" vertex="1">
          <mxGeometry width="50" height="50" as="geometry" />
        </mxCell>
        <mxCell id="0-xZhpKkMX_-yZnJY7W8-67" value="" style="group" parent="1" vertex="1" connectable="0">
          <mxGeometry x="455" y="1440" width="316" height="50" as="geometry" />
        </mxCell>
        <mxCell id="0-xZhpKkMX_-yZnJY7W8-68" value="Hidden Surface Elimination" style="rounded=1;whiteSpace=wrap;html=1;sketch=1;hachureGap=4;jiggle=2;curveFitting=1;fontFamily=Architects Daughter;fontSource=https%3A%2F%2Ffonts.googleapis.com%2Fcss%3Ffamily%3DArchitects%2BDaughter;arcSize=50;fillColor=#cce5ff;strokeColor=#36393d;fontStyle=1;fontSize=18;strokeWidth=2;shadow=0;container=0;" parent="0-xZhpKkMX_-yZnJY7W8-67" vertex="1">
          <mxGeometry x="50" width="250" height="50" as="geometry" />
        </mxCell>
        <mxCell id="0-xZhpKkMX_-yZnJY7W8-69" value="4" style="rounded=1;whiteSpace=wrap;html=1;sketch=1;hachureGap=4;jiggle=2;curveFitting=1;fontFamily=Architects Daughter;fontSource=https%3A%2F%2Ffonts.googleapis.com%2Fcss%3Ffamily%3DArchitects%2BDaughter;arcSize=46;fillColor=#cdeb8b;strokeColor=#36393d;fontStyle=1;fontSize=30;strokeWidth=2;shadow=0;container=0;" parent="0-xZhpKkMX_-yZnJY7W8-67" vertex="1">
          <mxGeometry width="50" height="50" as="geometry" />
        </mxCell>
        <mxCell id="0-xZhpKkMX_-yZnJY7W8-70" value="" style="group" parent="1" vertex="1" connectable="0">
          <mxGeometry x="58" y="1490" width="300" height="50" as="geometry" />
        </mxCell>
        <mxCell id="0-xZhpKkMX_-yZnJY7W8-57" value="Shading" style="rounded=1;whiteSpace=wrap;html=1;sketch=1;hachureGap=4;jiggle=2;curveFitting=1;fontFamily=Architects Daughter;fontSource=https%3A%2F%2Ffonts.googleapis.com%2Fcss%3Ffamily%3DArchitects%2BDaughter;arcSize=50;fillColor=#ffcc99;strokeColor=#36393d;fontStyle=1;fontSize=18;strokeWidth=2;shadow=0;container=0;" parent="0-xZhpKkMX_-yZnJY7W8-70" vertex="1">
          <mxGeometry x="50" width="250" height="50" as="geometry" />
        </mxCell>
        <mxCell id="0-xZhpKkMX_-yZnJY7W8-61" value="5" style="rounded=1;whiteSpace=wrap;html=1;sketch=1;hachureGap=4;jiggle=2;curveFitting=1;fontFamily=Architects Daughter;fontSource=https%3A%2F%2Ffonts.googleapis.com%2Fcss%3Ffamily%3DArchitects%2BDaughter;arcSize=46;fillColor=#cdeb8b;strokeColor=#36393d;fontStyle=1;fontSize=30;strokeWidth=2;shadow=0;container=0;" parent="0-xZhpKkMX_-yZnJY7W8-70" vertex="1">
          <mxGeometry width="50" height="50" as="geometry" />
        </mxCell>
        <mxCell id="0-xZhpKkMX_-yZnJY7W8-71" value="" style="group" parent="1" vertex="1" connectable="0">
          <mxGeometry x="455" y="1800" width="300" height="50" as="geometry" />
        </mxCell>
        <mxCell id="0-xZhpKkMX_-yZnJY7W8-72" value="Texture Mapping" style="rounded=1;whiteSpace=wrap;html=1;sketch=1;hachureGap=4;jiggle=2;curveFitting=1;fontFamily=Architects Daughter;fontSource=https%3A%2F%2Ffonts.googleapis.com%2Fcss%3Ffamily%3DArchitects%2BDaughter;arcSize=50;fillColor=#ffcc99;strokeColor=#36393d;fontStyle=1;fontSize=18;strokeWidth=2;shadow=0;container=0;" parent="0-xZhpKkMX_-yZnJY7W8-71" vertex="1">
          <mxGeometry x="50" width="250" height="50" as="geometry" />
        </mxCell>
        <mxCell id="0-xZhpKkMX_-yZnJY7W8-73" value="2" style="rounded=1;whiteSpace=wrap;html=1;sketch=1;hachureGap=4;jiggle=2;curveFitting=1;fontFamily=Architects Daughter;fontSource=https%3A%2F%2Ffonts.googleapis.com%2Fcss%3Ffamily%3DArchitects%2BDaughter;arcSize=46;fillColor=#ffff88;strokeColor=#36393d;fontStyle=1;fontSize=30;strokeWidth=2;shadow=0;container=0;" parent="0-xZhpKkMX_-yZnJY7W8-71" vertex="1">
          <mxGeometry width="50" height="50" as="geometry" />
        </mxCell>
        <mxCell id="0-xZhpKkMX_-yZnJY7W8-74" value="" style="group" parent="1" vertex="1" connectable="0">
          <mxGeometry x="58" y="1850" width="300" height="50" as="geometry" />
        </mxCell>
        <mxCell id="0-xZhpKkMX_-yZnJY7W8-75" value="Image Composition" style="rounded=1;whiteSpace=wrap;html=1;sketch=1;hachureGap=4;jiggle=2;curveFitting=1;fontFamily=Architects Daughter;fontSource=https%3A%2F%2Ffonts.googleapis.com%2Fcss%3Ffamily%3DArchitects%2BDaughter;arcSize=50;fillColor=#cdeb8b;strokeColor=#36393d;fontStyle=1;fontSize=18;strokeWidth=2;shadow=0;container=0;" parent="0-xZhpKkMX_-yZnJY7W8-74" vertex="1">
          <mxGeometry x="50" width="250" height="50" as="geometry" />
        </mxCell>
        <mxCell id="0-xZhpKkMX_-yZnJY7W8-76" value="3" style="rounded=1;whiteSpace=wrap;html=1;sketch=1;hachureGap=4;jiggle=2;curveFitting=1;fontFamily=Architects Daughter;fontSource=https%3A%2F%2Ffonts.googleapis.com%2Fcss%3Ffamily%3DArchitects%2BDaughter;arcSize=46;fillColor=#ffff88;strokeColor=#36393d;fontStyle=1;fontSize=30;strokeWidth=2;shadow=0;container=0;" parent="0-xZhpKkMX_-yZnJY7W8-74" vertex="1">
          <mxGeometry width="50" height="50" as="geometry" />
        </mxCell>
        <mxCell id="0-xZhpKkMX_-yZnJY7W8-77" value="" style="group" parent="1" vertex="1" connectable="0">
          <mxGeometry x="57" y="1690" width="300" height="50" as="geometry" />
        </mxCell>
        <mxCell id="0-xZhpKkMX_-yZnJY7W8-78" value="Rasterization &amp;amp; Sampling" style="rounded=1;whiteSpace=wrap;html=1;sketch=1;hachureGap=4;jiggle=2;curveFitting=1;fontFamily=Architects Daughter;fontSource=https%3A%2F%2Ffonts.googleapis.com%2Fcss%3Ffamily%3DArchitects%2BDaughter;arcSize=50;fillColor=#ffcccc;strokeColor=#36393d;fontStyle=1;fontSize=18;strokeWidth=2;shadow=0;container=0;" parent="0-xZhpKkMX_-yZnJY7W8-77" vertex="1">
          <mxGeometry x="50" width="250" height="50" as="geometry" />
        </mxCell>
        <mxCell id="0-xZhpKkMX_-yZnJY7W8-79" value="1" style="rounded=1;whiteSpace=wrap;html=1;sketch=1;hachureGap=4;jiggle=2;curveFitting=1;fontFamily=Architects Daughter;fontSource=https%3A%2F%2Ffonts.googleapis.com%2Fcss%3Ffamily%3DArchitects%2BDaughter;arcSize=46;fillColor=#ffff88;strokeColor=#36393d;fontStyle=1;fontSize=30;strokeWidth=2;shadow=0;container=0;" parent="0-xZhpKkMX_-yZnJY7W8-77" vertex="1">
          <mxGeometry width="50" height="50" as="geometry" />
        </mxCell>
        <mxCell id="0-xZhpKkMX_-yZnJY7W8-80" value="" style="group" parent="1" vertex="1" connectable="0">
          <mxGeometry x="455" y="1900" width="316" height="50" as="geometry" />
        </mxCell>
        <mxCell id="0-xZhpKkMX_-yZnJY7W8-81" value="Color Quantization" style="rounded=1;whiteSpace=wrap;html=1;sketch=1;hachureGap=4;jiggle=2;curveFitting=1;fontFamily=Architects Daughter;fontSource=https%3A%2F%2Ffonts.googleapis.com%2Fcss%3Ffamily%3DArchitects%2BDaughter;arcSize=50;fillColor=#cce5ff;strokeColor=#36393d;fontStyle=1;fontSize=18;strokeWidth=2;shadow=0;container=0;" parent="0-xZhpKkMX_-yZnJY7W8-80" vertex="1">
          <mxGeometry x="50" width="250" height="50" as="geometry" />
        </mxCell>
        <mxCell id="0-xZhpKkMX_-yZnJY7W8-82" value="4" style="rounded=1;whiteSpace=wrap;html=1;sketch=1;hachureGap=4;jiggle=2;curveFitting=1;fontFamily=Architects Daughter;fontSource=https%3A%2F%2Ffonts.googleapis.com%2Fcss%3Ffamily%3DArchitects%2BDaughter;arcSize=46;fillColor=#ffff88;strokeColor=#36393d;fontStyle=1;fontSize=30;strokeWidth=2;shadow=0;container=0;" parent="0-xZhpKkMX_-yZnJY7W8-80" vertex="1">
          <mxGeometry width="50" height="50" as="geometry" />
        </mxCell>
        <mxCell id="0-xZhpKkMX_-yZnJY7W8-86" value="" style="group" parent="1" vertex="1" connectable="0">
          <mxGeometry x="58" y="1950" width="316" height="50" as="geometry" />
        </mxCell>
        <mxCell id="0-xZhpKkMX_-yZnJY7W8-87" value="Frame Buffer &amp;amp; Display" style="rounded=1;whiteSpace=wrap;html=1;sketch=1;hachureGap=4;jiggle=2;curveFitting=1;fontFamily=Architects Daughter;fontSource=https%3A%2F%2Ffonts.googleapis.com%2Fcss%3Ffamily%3DArchitects%2BDaughter;arcSize=50;fillColor=#ffcc99;strokeColor=#36393d;fontStyle=1;fontSize=18;strokeWidth=2;shadow=0;container=0;" parent="0-xZhpKkMX_-yZnJY7W8-86" vertex="1">
          <mxGeometry x="50" width="250" height="50" as="geometry" />
        </mxCell>
        <mxCell id="0-xZhpKkMX_-yZnJY7W8-88" value="5" style="rounded=1;whiteSpace=wrap;html=1;sketch=1;hachureGap=4;jiggle=2;curveFitting=1;fontFamily=Architects Daughter;fontSource=https%3A%2F%2Ffonts.googleapis.com%2Fcss%3Ffamily%3DArchitects%2BDaughter;arcSize=46;fillColor=#ffff88;strokeColor=#36393d;fontStyle=1;fontSize=30;strokeWidth=2;shadow=0;container=0;" parent="0-xZhpKkMX_-yZnJY7W8-86" vertex="1">
          <mxGeometry width="50" height="50" as="geometry" />
        </mxCell>
        <mxCell id="0-xZhpKkMX_-yZnJY7W8-40" value="&lt;span style=&quot;font-size: 27px;&quot;&gt;Applications Stage&lt;/span&gt;" style="rounded=1;whiteSpace=wrap;html=1;sketch=1;hachureGap=4;jiggle=2;curveFitting=1;fontFamily=Architects Daughter;fontSource=https%3A%2F%2Ffonts.googleapis.com%2Fcss%3Ffamily%3DArchitects%2BDaughter;arcSize=50;fillColor=#ffcccc;strokeColor=#36393d;fontStyle=1;fontSize=27;strokeWidth=2;shadow=0;container=0;spacingBottom=6;" parent="1" vertex="1">
          <mxGeometry x="121" y="850" width="261" height="45" as="geometry" />
        </mxCell>
        <mxCell id="0-xZhpKkMX_-yZnJY7W8-41" value="Done in software by the CPU by reading the user&#39;s input &amp;amp; response to it the applications stage change the view" style="rounded=1;whiteSpace=wrap;html=1;sketch=1;hachureGap=4;jiggle=2;curveFitting=1;fontFamily=Architects Daughter;fontSource=https%3A%2F%2Ffonts.googleapis.com%2Fcss%3Ffamily%3DArchitects%2BDaughter;arcSize=50;fillColor=#ffff88;strokeColor=#36393d;fontStyle=1;fontSize=18;strokeWidth=2;shadow=0;container=0;" parent="1" vertex="1">
          <mxGeometry x="64" y="895" width="700" height="65" as="geometry" />
        </mxCell>
        <mxCell id="0-xZhpKkMX_-yZnJY7W8-89" value="2" style="rounded=1;whiteSpace=wrap;html=1;sketch=1;hachureGap=4;jiggle=2;curveFitting=1;fontFamily=Architects Daughter;fontSource=https%3A%2F%2Ffonts.googleapis.com%2Fcss%3Ffamily%3DArchitects%2BDaughter;arcSize=46;fillColor=#ffcc99;strokeColor=#36393d;fontStyle=1;fontSize=30;strokeWidth=2;shadow=0;container=0;" parent="1" vertex="1">
          <mxGeometry x="249" y="1200" width="50" height="50" as="geometry" />
        </mxCell>
        <mxCell id="0-xZhpKkMX_-yZnJY7W8-90" value="1" style="rounded=1;whiteSpace=wrap;html=1;sketch=1;hachureGap=4;jiggle=2;curveFitting=1;fontFamily=Architects Daughter;fontSource=https%3A%2F%2Ffonts.googleapis.com%2Fcss%3Ffamily%3DArchitects%2BDaughter;arcSize=46;fillColor=#ffcc99;strokeColor=#36393d;fontStyle=1;fontSize=30;strokeWidth=2;shadow=0;container=0;" parent="1" vertex="1">
          <mxGeometry x="75" y="850" width="46" height="44.5" as="geometry" />
        </mxCell>
        <mxCell id="0-xZhpKkMX_-yZnJY7W8-91" value="3" style="rounded=1;whiteSpace=wrap;html=1;sketch=1;hachureGap=4;jiggle=2;curveFitting=1;fontFamily=Architects Daughter;fontSource=https%3A%2F%2Ffonts.googleapis.com%2Fcss%3Ffamily%3DArchitects%2BDaughter;arcSize=46;fillColor=#ffcc99;strokeColor=#36393d;fontStyle=1;fontSize=30;strokeWidth=2;shadow=0;container=0;" parent="1" vertex="1">
          <mxGeometry x="223" y="1600" width="50" height="50" as="geometry" />
        </mxCell>
        <mxCell id="c2XPkhttcCRp7YXjQPyF-1" value="&lt;div style=&quot;text-align: left;&quot;&gt;a video output device that drives a video display from a&amp;nbsp;&lt;span style=&quot;background-color: initial;&quot;&gt;memory containing the color for every pixel&amp;nbsp;&lt;/span&gt;&lt;/div&gt;" style="rounded=1;whiteSpace=wrap;html=1;sketch=1;hachureGap=4;jiggle=2;curveFitting=1;fontFamily=Architects Daughter;fontSource=https%3A%2F%2Ffonts.googleapis.com%2Fcss%3Ffamily%3DArchitects%2BDaughter;arcSize=50;fillColor=#ffcccc;strokeColor=#36393d;fontStyle=1;fontSize=18;strokeWidth=2;shadow=0;container=0;spacingLeft=9;" parent="1" vertex="1">
          <mxGeometry x="30" y="2000" width="700" height="65" as="geometry" />
        </mxCell>
        <mxCell id="0LqMpaEIRiquRfvynzdA-1" value="" style="endArrow=none;html=1;rounded=0;sketch=1;hachureGap=4;jiggle=2;curveFitting=1;fontFamily=Architects Daughter;fontSource=https%3A%2F%2Ffonts.googleapis.com%2Fcss%3Ffamily%3DArchitects%2BDaughter;strokeWidth=2;edgeStyle=orthogonalEdgeStyle;curved=1;" parent="1" edge="1">
          <mxGeometry width="50" height="50" relative="1" as="geometry">
            <mxPoint x="99" y="2110" as="sourcePoint" />
            <mxPoint x="729" y="2110" as="targetPoint" />
            <Array as="points">
              <mxPoint x="99" y="2100" />
              <mxPoint x="179" y="2100" />
              <mxPoint x="179" y="2120" />
              <mxPoint x="269" y="2120" />
              <mxPoint x="269" y="2100" />
              <mxPoint x="359" y="2100" />
              <mxPoint x="359" y="2120" />
              <mxPoint x="449" y="2120" />
              <mxPoint x="449" y="2100" />
              <mxPoint x="539" y="2100" />
              <mxPoint x="539" y="2120" />
              <mxPoint x="629" y="2120" />
              <mxPoint x="629" y="2100" />
              <mxPoint x="729" y="2100" />
            </Array>
          </mxGeometry>
        </mxCell>
        <mxCell id="0LqMpaEIRiquRfvynzdA-2" value="&lt;div style=&quot;text-align: left;&quot;&gt;Convert vertix information into pixel information&lt;/div&gt;" style="rounded=1;whiteSpace=wrap;html=1;sketch=1;hachureGap=4;jiggle=2;curveFitting=1;fontFamily=Architects Daughter;fontSource=https%3A%2F%2Ffonts.googleapis.com%2Fcss%3Ffamily%3DArchitects%2BDaughter;arcSize=50;fillColor=#cdeb8b;strokeColor=#36393d;fontStyle=1;fontSize=18;strokeWidth=2;shadow=0;container=0;spacingLeft=9;" parent="1" vertex="1">
          <mxGeometry x="49" y="1740" width="450" height="50" as="geometry" />
        </mxCell>
        <mxCell id="0LqMpaEIRiquRfvynzdA-6" value="" style="group" parent="1" vertex="1" connectable="0">
          <mxGeometry x="40" y="2380" width="270" height="90" as="geometry" />
        </mxCell>
        <mxCell id="0LqMpaEIRiquRfvynzdA-7" value="Point" style="rounded=1;whiteSpace=wrap;html=1;sketch=1;hachureGap=4;jiggle=2;curveFitting=1;fontFamily=Architects Daughter;fontSource=https%3A%2F%2Ffonts.googleapis.com%2Fcss%3Ffamily%3DArchitects%2BDaughter;arcSize=50;fillColor=#cce5ff;strokeColor=#36393d;fontStyle=1;fontSize=21;strokeWidth=2;shadow=0;spacingBottom=5;container=0;" parent="0LqMpaEIRiquRfvynzdA-6" vertex="1">
          <mxGeometry x="20" width="110" height="35" as="geometry" />
        </mxCell>
        <mxCell id="0LqMpaEIRiquRfvynzdA-8" value="Location in space, Sometimes donets as a pixel" style="rounded=1;whiteSpace=wrap;html=1;sketch=1;hachureGap=4;jiggle=2;curveFitting=1;fontFamily=Architects Daughter;fontSource=https%3A%2F%2Ffonts.googleapis.com%2Fcss%3Ffamily%3DArchitects%2BDaughter;arcSize=50;fillColor=#ffcccc;strokeColor=#36393d;fontStyle=1;fontSize=18;strokeWidth=2;shadow=0;container=0;" parent="0LqMpaEIRiquRfvynzdA-6" vertex="1">
          <mxGeometry y="35" width="270" height="55" as="geometry" />
        </mxCell>
        <mxCell id="0LqMpaEIRiquRfvynzdA-12" value="" style="group" parent="1" vertex="1" connectable="0">
          <mxGeometry x="400" y="2380" width="270" height="90" as="geometry" />
        </mxCell>
        <mxCell id="0LqMpaEIRiquRfvynzdA-10" value="Line" style="rounded=1;whiteSpace=wrap;html=1;sketch=1;hachureGap=4;jiggle=2;curveFitting=1;fontFamily=Architects Daughter;fontSource=https%3A%2F%2Ffonts.googleapis.com%2Fcss%3Ffamily%3DArchitects%2BDaughter;arcSize=50;fillColor=#cdeb8b;strokeColor=#36393d;fontStyle=1;fontSize=21;strokeWidth=2;shadow=0;spacingBottom=5;container=0;" parent="0LqMpaEIRiquRfvynzdA-12" vertex="1">
          <mxGeometry x="20" width="110" height="35" as="geometry" />
        </mxCell>
        <mxCell id="0LqMpaEIRiquRfvynzdA-11" value="Staright path connecting&lt;div&gt;each others&lt;/div&gt;" style="rounded=1;whiteSpace=wrap;html=1;sketch=1;hachureGap=4;jiggle=2;curveFitting=1;fontFamily=Architects Daughter;fontSource=https%3A%2F%2Ffonts.googleapis.com%2Fcss%3Ffamily%3DArchitects%2BDaughter;arcSize=50;fillColor=#ffff88;strokeColor=#36393d;fontStyle=1;fontSize=18;strokeWidth=2;shadow=0;container=0;" parent="0LqMpaEIRiquRfvynzdA-12" vertex="1">
          <mxGeometry y="35" width="270" height="55" as="geometry" />
        </mxCell>
        <mxCell id="0LqMpaEIRiquRfvynzdA-13" value="" style="group" parent="1" vertex="1" connectable="0">
          <mxGeometry x="40" y="2510" width="270" height="90" as="geometry" />
        </mxCell>
        <mxCell id="0LqMpaEIRiquRfvynzdA-14" value="Vertix" style="rounded=1;whiteSpace=wrap;html=1;sketch=1;hachureGap=4;jiggle=2;curveFitting=1;fontFamily=Architects Daughter;fontSource=https%3A%2F%2Ffonts.googleapis.com%2Fcss%3Ffamily%3DArchitects%2BDaughter;arcSize=50;fillColor=#ffff88;strokeColor=#36393d;fontStyle=1;fontSize=21;strokeWidth=2;shadow=0;spacingBottom=5;container=0;" parent="0LqMpaEIRiquRfvynzdA-13" vertex="1">
          <mxGeometry x="20" width="110" height="35" as="geometry" />
        </mxCell>
        <mxCell id="0LqMpaEIRiquRfvynzdA-15" value="Point in 3D" style="rounded=1;whiteSpace=wrap;html=1;sketch=1;hachureGap=4;jiggle=2;curveFitting=1;fontFamily=Architects Daughter;fontSource=https%3A%2F%2Ffonts.googleapis.com%2Fcss%3Ffamily%3DArchitects%2BDaughter;arcSize=50;fillColor=#cdeb8b;strokeColor=#36393d;fontStyle=1;fontSize=18;strokeWidth=2;shadow=0;container=0;" parent="0LqMpaEIRiquRfvynzdA-13" vertex="1">
          <mxGeometry y="35" width="270" height="55" as="geometry" />
        </mxCell>
        <mxCell id="0LqMpaEIRiquRfvynzdA-16" value="" style="group" parent="1" vertex="1" connectable="0">
          <mxGeometry x="400" y="2510" width="270" height="90" as="geometry" />
        </mxCell>
        <mxCell id="0LqMpaEIRiquRfvynzdA-17" value="Edge" style="rounded=1;whiteSpace=wrap;html=1;sketch=1;hachureGap=4;jiggle=2;curveFitting=1;fontFamily=Architects Daughter;fontSource=https%3A%2F%2Ffonts.googleapis.com%2Fcss%3Ffamily%3DArchitects%2BDaughter;arcSize=50;fillColor=#ffcc99;strokeColor=#36393d;fontStyle=1;fontSize=21;strokeWidth=2;shadow=0;spacingBottom=5;container=0;" parent="0LqMpaEIRiquRfvynzdA-16" vertex="1">
          <mxGeometry x="20" width="110" height="35" as="geometry" />
        </mxCell>
        <mxCell id="0LqMpaEIRiquRfvynzdA-18" value="Line in 3D connecting 2 Vertices" style="rounded=1;whiteSpace=wrap;html=1;sketch=1;hachureGap=4;jiggle=2;curveFitting=1;fontFamily=Architects Daughter;fontSource=https%3A%2F%2Ffonts.googleapis.com%2Fcss%3Ffamily%3DArchitects%2BDaughter;arcSize=50;fillColor=#cce5ff;strokeColor=#36393d;fontStyle=1;fontSize=18;strokeWidth=2;shadow=0;container=0;" parent="0LqMpaEIRiquRfvynzdA-16" vertex="1">
          <mxGeometry y="35" width="270" height="55" as="geometry" />
        </mxCell>
        <mxCell id="0LqMpaEIRiquRfvynzdA-19" value="" style="group" parent="1" vertex="1" connectable="0">
          <mxGeometry x="40" y="2660" width="310" height="140" as="geometry" />
        </mxCell>
        <mxCell id="0LqMpaEIRiquRfvynzdA-20" value="Polygon" style="rounded=1;whiteSpace=wrap;html=1;sketch=1;hachureGap=4;jiggle=2;curveFitting=1;fontFamily=Architects Daughter;fontSource=https%3A%2F%2Ffonts.googleapis.com%2Fcss%3Ffamily%3DArchitects%2BDaughter;arcSize=50;fillColor=#cce5ff;strokeColor=#36393d;fontStyle=1;fontSize=21;strokeWidth=2;shadow=0;spacingBottom=5;container=0;" parent="0LqMpaEIRiquRfvynzdA-19" vertex="1">
          <mxGeometry x="20" width="110" height="35" as="geometry" />
        </mxCell>
        <mxCell id="0LqMpaEIRiquRfvynzdA-21" value="&lt;div&gt;arbitrary shape formed by connected vertices&lt;/div&gt;&lt;div&gt;fundamental unit of 3D computer graphics&lt;/div&gt;" style="rounded=1;whiteSpace=wrap;html=1;sketch=1;hachureGap=4;jiggle=2;curveFitting=1;fontFamily=Architects Daughter;fontSource=https%3A%2F%2Ffonts.googleapis.com%2Fcss%3Ffamily%3DArchitects%2BDaughter;arcSize=50;fillColor=#ffcc99;strokeColor=#36393d;fontStyle=1;fontSize=18;strokeWidth=2;shadow=0;container=0;align=center;" parent="0LqMpaEIRiquRfvynzdA-19" vertex="1">
          <mxGeometry y="35" width="310" height="105" as="geometry" />
        </mxCell>
        <mxCell id="0LqMpaEIRiquRfvynzdA-25" value="" style="group" parent="1" vertex="1" connectable="0">
          <mxGeometry x="400" y="2660" width="270" height="100" as="geometry" />
        </mxCell>
        <mxCell id="0LqMpaEIRiquRfvynzdA-23" value="Mesh" style="rounded=1;whiteSpace=wrap;html=1;sketch=1;hachureGap=4;jiggle=2;curveFitting=1;fontFamily=Architects Daughter;fontSource=https%3A%2F%2Ffonts.googleapis.com%2Fcss%3Ffamily%3DArchitects%2BDaughter;arcSize=50;fillColor=#cdeb8b;strokeColor=#36393d;fontStyle=1;fontSize=21;strokeWidth=2;shadow=0;spacingBottom=5;container=0;" parent="0LqMpaEIRiquRfvynzdA-25" vertex="1">
          <mxGeometry x="20" width="110" height="35" as="geometry" />
        </mxCell>
        <mxCell id="0LqMpaEIRiquRfvynzdA-24" value="set of connected polygons forming a surface (or object)" style="rounded=1;whiteSpace=wrap;html=1;sketch=1;hachureGap=4;jiggle=2;curveFitting=1;fontFamily=Architects Daughter;fontSource=https%3A%2F%2Ffonts.googleapis.com%2Fcss%3Ffamily%3DArchitects%2BDaughter;arcSize=50;fillColor=#ffcccc;strokeColor=#36393d;fontStyle=1;fontSize=18;strokeWidth=2;shadow=0;container=0;" parent="0LqMpaEIRiquRfvynzdA-25" vertex="1">
          <mxGeometry y="35" width="270" height="65" as="geometry" />
        </mxCell>
      </root>
    </mxGraphModel>
  </diagram>
</mxfile>
